<svg width="125" height="125" viewBox="0 0 125 125" fill="none" xmlns="http://www.w3.org/2000/svg">
<path d="M0 0H125V125H0V0Z" fill="#054674"/>
<path d="M32.5238 23C27.2866 23 23 27.2853 23 32.5208V93.4537C23 98.6892 27.2866 102.975 32.5238 102.975H64.5848C64.7905 103.008 65.0004 103.008 65.2061 102.975H76.0134C76.2191 103.008 76.429 103.008 76.6347 102.975H93.4762C98.7134 102.975 103 98.6892 103 93.4537V32.5208C103 27.2853 98.7134 23 93.4762 23H32.5238ZM32.5238 26.8083H93.4762C96.6542 26.8083 99.1905 29.3437 99.1905 32.5208V93.4537C99.1905 96.6308 96.6542 99.1662 93.4762 99.1662H78.2381V72.508H85.5149L88.1823 59.1789H78.2381V55.3706C78.2381 54.3091 78.3391 54.2261 78.6957 53.9946C79.0522 53.7631 80.1539 53.4665 82.0476 53.4665H87.7619V42.7444L86.6756 42.2275C86.6756 42.2275 82.3003 40.1374 76.3333 40.1374C72.0476 40.1374 68.5268 41.8444 66.2738 44.6597C64.0208 47.4751 63 51.2449 63 55.3706V59.1789H57.2857V72.508H63V99.1662H32.5238C29.3458 99.1662 26.8095 96.6308 26.8095 93.4537V32.5208C26.8095 29.3437 29.3458 26.8083 32.5238 26.8083ZM76.3333 43.9457C80.2934 43.9457 82.7854 44.8187 83.9524 45.2808V49.6582H82.0476C79.8556 49.6582 78.099 49.8394 76.6198 50.7999C75.1406 51.7604 74.4286 53.5836 74.4286 55.3706V62.9873H83.532L82.3899 68.6997H74.4286V99.1662H66.8095V68.6997H61.0952V62.9873H66.8095V55.3706C66.8095 51.8797 67.6935 48.985 69.25 47.04C70.8065 45.095 73 43.9457 76.3333 43.9457Z" fill="white"/>
</svg>
