<svg width="125" height="125" viewBox="0 0 125 125" fill="none" xmlns="http://www.w3.org/2000/svg">
<path d="M0 0H125V125H0V0Z" fill="#054674"/>
<path d="M46.6364 23C33.6045 23 23 33.6045 23 46.6364V79.3636C23 92.3955 33.6045 103 46.6364 103H79.3636C92.3955 103 103 92.3955 103 79.3636V46.6364C103 33.6045 92.3955 23 79.3636 23H46.6364ZM46.6364 26.6364H79.3636C90.43 26.6364 99.3636 35.57 99.3636 46.6364V79.3636C99.3636 90.43 90.43 99.3636 79.3636 99.3636H46.6364C35.57 99.3636 26.6364 90.43 26.6364 79.3636V46.6364C26.6364 35.57 35.57 26.6364 46.6364 26.6364ZM84.8182 37.5455C82.8099 37.5455 81.1818 39.1735 81.1818 41.1818C81.1818 43.1901 82.8099 44.8182 84.8182 44.8182C86.8265 44.8182 88.4545 43.1901 88.4545 41.1818C88.4545 39.1735 86.8265 37.5455 84.8182 37.5455ZM63 43C51.9758 43 43 51.9758 43 63C43 74.0242 51.9758 83 63 83C74.0242 83 83 74.0242 83 63C83 51.9758 74.0242 43 63 43ZM63 46.6364C72.0589 46.6364 79.3636 53.9411 79.3636 63C79.3636 72.0589 72.0589 79.3636 63 79.3636C53.9411 79.3636 46.6364 72.0589 46.6364 63C46.6364 53.9411 53.9411 46.6364 63 46.6364Z" fill="white"/>
</svg>
