<svg width="125" height="125" viewBox="0 0 125 125" fill="none" xmlns="http://www.w3.org/2000/svg">
<path d="M0 0H125V125H0V0Z" fill="#054674"/>
<path d="M32.5238 23C27.2866 23 23 27.2866 23 32.5238V93.4762C23 98.7134 27.2866 103 32.5238 103H93.4762C98.7134 103 103 98.7134 103 93.4762V32.5238C103 27.2866 98.7134 23 93.4762 23H32.5238ZM32.5238 26.8095H93.4762C96.6542 26.8095 99.1905 29.3458 99.1905 32.5238V93.4762C99.1905 96.6542 96.6542 99.1905 93.4762 99.1905H32.5238C29.3458 99.1905 26.8095 96.6542 26.8095 93.4762V32.5238C26.8095 29.3458 29.3458 26.8095 32.5238 26.8095ZM42.0476 36.3557C39.9615 36.3557 38.0842 36.9792 36.6942 38.1488C35.3042 39.3184 34.4509 41.0658 34.4509 42.9368C34.4509 46.4933 37.5358 49.2659 41.4598 49.5402C41.4623 49.5414 41.4648 49.5427 41.4673 49.5439C41.6543 49.6076 41.8501 49.6415 42.0476 49.6443C46.3772 49.6443 49.6444 46.6116 49.6444 42.9368C49.644 42.9033 49.6428 42.8698 49.6406 42.8363C49.4468 39.2168 46.2199 36.3557 42.0476 36.3557ZM42.0476 40.1205C44.6995 40.1205 45.7466 41.3048 45.8609 42.9851C45.8377 44.6161 44.8287 45.8795 42.0476 45.8795C39.4087 45.8795 38.2158 44.5281 38.2158 42.9368C38.2158 42.1411 38.5061 41.5415 39.1161 41.0283C39.726 40.515 40.7052 40.1205 42.0476 40.1205ZM36.3333 51.5714C35.2814 51.5715 34.4287 52.4243 34.4286 53.4762V89.6667C34.4287 90.7186 35.2814 91.5713 36.3333 91.5714H47.7619C48.8138 91.5713 49.6666 90.7186 49.6667 89.6667V78.4948V53.4762C49.6666 52.4243 48.8138 51.5715 47.7619 51.5714H36.3333ZM53.4762 51.5714C52.4243 51.5715 51.5715 52.4243 51.5714 53.4762V89.6667C51.5715 90.7186 52.4243 91.5713 53.4762 91.5714H64.9048C65.9567 91.5713 66.8094 90.7186 66.8095 89.6667V70.619C66.8095 69.0387 67.2407 67.4667 68 66.4375C68.7593 65.4083 69.7171 64.7906 71.5379 64.8229C73.4155 64.8552 74.4095 65.4984 75.1614 66.5082C75.9134 67.518 76.3333 69.0318 76.3333 70.619V89.6667C76.3334 90.7186 77.1861 91.5713 78.2381 91.5714H89.6666C90.7186 91.5713 91.5713 90.7186 91.5714 89.6667V69.2128C91.5714 63.5718 89.9005 59.1035 87.0364 56.0804C84.1723 53.0572 80.1889 51.5714 75.9762 51.5714C71.9723 51.5714 68.9254 52.9141 66.8095 54.2835V53.4762C66.8094 52.4243 65.9567 51.5715 64.9047 51.5714H53.4762ZM38.2381 55.381H45.8571V78.4948V87.7619H38.2381V55.381ZM55.381 55.381H63V58.3534C63.0002 59.1725 63.524 59.8997 64.3008 60.1595C65.0776 60.4192 65.9334 60.1534 66.4263 59.4993C66.4263 59.4993 69.4175 55.381 75.9762 55.381C79.3158 55.381 82.1797 56.4906 84.2723 58.6994C86.3649 60.9082 87.7619 64.311 87.7619 69.2128V87.7619H80.1428V70.619C80.1428 68.3968 79.6104 66.0993 78.2195 64.2314C76.8286 62.3635 74.4892 61.063 71.6049 61.0134C68.7058 60.9619 66.3286 62.2895 64.9345 64.1793C63.5404 66.0691 63 68.3898 63 70.619V87.7619H55.3809L55.381 55.381Z" fill="white"/>
</svg>
